<?xml version="1.0" encoding="iso-8859-1"?>
<!-- Generator: Adobe Illustrator 19.1.0, SVG Export Plug-In . SVG Version: 6.00 Build 0)  -->
<svg xmlns="http://www.w3.org/2000/svg" xmlns:xlink="http://www.w3.org/1999/xlink" version="1.1" id="Capa_1" x="0px" y="0px" viewBox="0 0 48 48" style="enable-background:new 0 0 48 48;" xml:space="preserve" width="512px" height="512px">
<g id="dashboard_1_">
	<g>
		<path d="M25.27,23.296c-0.42-0.067-0.842-0.113-1.263-0.113c-2.764,0-5.526,1.251-7.008,3.817    c-2.209,3.826-0.825,8.901,3.001,11.109C21.26,38.837,22.643,39,24,39c2.764,0,5.519-1.434,7-4    c1.672-2.896,1.251-6.219-0.675-8.711L33,16L25.27,23.296z M27.463,33.182C26.751,34.416,25.428,35,24,35    c-0.705,0-1.382,0.002-1.999-0.355c-1.91-1.102-2.566-3.553-1.464-5.462c0.712-1.234,2.042-2.001,3.471-2.001    c0.704,0,1.374,0.181,1.991,0.537C27.909,28.822,28.565,31.272,27.463,33.182z M24,5C10.745,5,0,16.433,0,30    c0,4.96,1.441,9.139,3.911,13H14v-4H6c-1.447-2.879-2-5.729-2-9C4,18.712,12.972,9,24,9c11.028,0,20,9.712,20,21    c0,3.271-0.553,6.121-2,9h-8v4h10c2.47-3.861,4-8.04,4-13C48,16.433,37.255,5,24,5z" fill="#edb92b"/>
	</g>
</g>
<g>
</g>
<g>
</g>
<g>
</g>
<g>
</g>
<g>
</g>
<g>
</g>
<g>
</g>
<g>
</g>
<g>
</g>
<g>
</g>
<g>
</g>
<g>
</g>
<g>
</g>
<g>
</g>
<g>
</g>
</svg>
